PathFileType	3	(X/Y/Z)	E:\ViconData\BIOM9541 2025\Week 7\Wed1100\Hanif  deep squat 2-5 Squat 01.trc
DataRate	CameraRate	NumFrames	NumMarkers	Units	OrigDataRate	OrigDataStartFrame	OrigNumFrames
200.0	200.0	13	19	mm	200.0	502	1338	
Frame#	Time	C7			CLAV			RBAK			LASI			RASI			LPSI			RPSI			LTHI			LKNE			LTIB			LANK			LHEE			LTOE			RTHI			RKNE			RTIB			RANK			RHEE			RTOE			
		X1	Y1	Z1	X2	Y2	Z2	X3	Y3	Z3	X4	Y4	Z4	X5	Y5	Z5	X6	Y6	Z6	X7	Y7	Z7	X8	Y8	Z8	X9	Y9	Z9	X10	Y10	Z10	X11	Y11	Z11	X12	Y12	Z12	X13	Y13	Z13	X14	Y14	Z14	X15	Y15	Z15	X16	Y16	Z16	X17	Y17	Z17	X18	Y18	Z18	X19	Y19	Z19	
502	2.505	294.33316	1183.7471	-1211.6624	153.9908	1098.1215	-1200.9751	318.79266	1106.8348	-1357.938	272.74356	740.35895	-1081.8657	254.23428	757.04071	-1339.8665	433.69156	810.51929	-1171.6737	430.21597	808.73303	-1246.1464	210.89522	519.88531	-931.58142	148.74678	394.78409	-904.6424	235.97163	202.65137	-920.42706	299.97852	63.837849	-964.52911	321.73636	51.850414	-1026.3834	163.53786	38.948143	-932.27765	288.04211	654.04535	-1429.339	154.1554	386.8887	-1505.8385	184.94562	303.67972	-1506.8232	292.91486	71.912209	-1437.0214	315.73865	50.337292	-1368.2695	164.78659	40.818405	-1474.6936
503	2.51	293.81207	1178.7648	-1211.5803	153.68347	1092.7615	-1200.8833	318.38284	1101.9067	-1357.9016	274.12839	735.43268	-1082.0363	255.12561	752.20691	-1339.8767	434.71588	806.10913	-1171.8422	431.09137	804.19751	-1246.4022	210.97389	518.49152	-930.82184	147.52287	394.07761	-903.05133	235.25612	202.21397	-919.74744	299.91144	63.8564	-964.55658	321.55856	51.887897	-1026.3915	163.48683	38.998177	-932.2558	288.94638	651.19177	-1429.782	152.2614	385.55725	-1507.3098	183.26019	302.67462	-1508.0496	292.79767	71.919678	-1436.9797	315.6366	50.451061	-1368.0752	164.81308	40.88773	-1474.6696
504	2.515	293.32623	1173.7468	-1211.6003	153.34892	1087.3307	-1200.7587	317.97485	1096.8934	-1357.8636	275.40753	730.54822	-1082.0895	256.04132	747.34717	-1339.9442	435.6933	801.59741	-1171.9988	432.05243	799.98352	-1246.5819	211.04709	517.04791	-930.08466	146.3358	393.30484	-901.4729	234.54305	201.92003	-918.98309	299.87454	63.875103	-964.57233	321.32571	51.781799	-1026.298	163.48103	38.999237	-932.2572	289.7941	648.10449	-1430.0994	150.53561	384.25323	-1508.8871	181.66763	301.53961	-1509.2303	292.69971	71.822426	-1436.9879	315.5737	50.502815	-1368.0363	164.88339	40.913185	-1474.6768
505	2.52	292.82578	1168.7069	-1211.6292	153.03569	1081.845	-1200.6561	317.65427	1091.8131	-1357.8929	276.59152	725.47864	-1082.1755	256.91565	742.44647	-1339.9768	436.73883	797.02161	-1172.6348	433.05777	795.43915	-1246.8899	211.13892	515.49933	-929.36658	145.23663	392.64203	-899.9455	233.96242	201.56078	-918.36298	299.94257	63.904011	-964.63794	321.21793	51.763847	-1026.323	163.52563	39.018246	-932.30823	290.73154	644.96844	-1430.3632	148.92499	382.91937	-1510.4171	180.24033	300.41461	-1510.5494	292.63852	71.669083	-1437.0326	315.55005	50.491856	-1368.074	164.96588	40.874165	-1474.6971
506	2.525	292.26733	1163.6083	-1211.5474	152.74513	1076.3112	-1200.7675	317.28186	1086.6014	-1357.9603	277.80533	720.59558	-1082.1426	257.86868	737.4903	-1340.062	437.74393	792.36591	-1172.9263	433.98877	790.96722	-1247.0549	211.22391	514.00555	-928.56403	144.18974	391.88324	-898.31689	233.34579	201.21217	-917.67371	300.48132	64.672646	-964.62976	321.4635	52.453762	-1026.8893	163.53967	39.036171	-932.33264	291.59741	641.8064	-1430.719	147.40718	381.64197	-1511.9136	178.79448	299.31082	-1511.7661	292.55243	71.52491	-1437.0643	315.44574	50.540775	-1368.0784	165.01143	40.894882	-1474.7825
507	2.53	291.80347	1158.5264	-1211.6383	152.42285	1070.6349	-1200.6479	316.94281	1081.4728	-1358.0465	279.05359	715.52686	-1082.2747	258.71243	732.57965	-1340.1562	438.65189	787.69843	-1172.922	434.86288	786.20917	-1247.2191	211.33931	512.34137	-927.8493	143.18947	391.07309	-896.84607	232.8242	200.76208	-917.03668	300.50488	64.732368	-964.60089	321.35959	52.511887	-1026.9011	163.56264	39.089451	-932.29065	292.45282	638.66852	-1430.9658	145.89496	380.45123	-1513.4916	177.49797	298.23801	-1513.1256	292.26837	71.36528	-1436.9995	315.05081	50.920559	-1367.2899	165.03709	41.00425	-1474.8916
508	2.535	291.3382	1153.3593	-1211.6852	152.10452	1064.9604	-1200.7321	316.54285	1076.3595	-1358.05	279.42096	710.64594	-1080.7507	259.66541	727.60956	-1340.2186	439.60251	783.04407	-1172.9275	435.6601	781.20721	-1247.3977	211.44035	510.64807	-927.0993	142.1582	390.20789	-895.21454	232.34752	200.30174	-916.2981	299.9205	63.81406	-964.63123	320.77344	51.716114	-1026.1984	163.58197	39.150787	-932.14899	293.34567	635.47546	-1431.2736	144.46884	379.28558	-1515.1761	176.22331	297.24695	-1514.4561	292.14197	71.374901	-1437.0471	314.89337	51.077793	-1366.9617	165.09778	41.132534	-1474.9644
509	2.54	290.92545	1148.1863	-1211.6743	151.83321	1059.3475	-1200.6642	316.12064	1071.1621	-1358.0608	281.24548	705.16058	-1082.2278	260.50366	722.73663	-1340.2698	440.4881	778.29199	-1172.8928	436.44064	776.13605	-1247.4896	211.49345	508.94016	-926.29974	141.19821	389.32101	-893.66992	231.853	199.83882	-915.63544	299.89426	63.677208	-964.64868	320.64777	51.672829	-1026.1938	163.63774	39.276562	-932.14648	294.23059	632.23383	-1431.4768	143.07213	378.10455	-1516.8029	174.99725	296.18506	-1515.7283	292.05777	71.334999	-1437.1124	314.19623	51.978264	-1364.6051	165.14055	41.257732	-1475.0782
510	2.545	290.57642	1142.9845	-1211.7372	151.49927	1053.6414	-1200.6389	315.69434	1065.8955	-1358.104	282.26373	699.97028	-1082.2634	261.39771	717.69885	-1340.2886	441.40521	773.41742	-1173.2272	437.30386	771.33478	-1247.5897	211.56897	507.1702	-925.63373	140.29874	388.47009	-892.1673	231.51051	199.37779	-915.01904	299.95398	63.594238	-964.63959	320.60886	51.668816	-1026.0532	163.68636	39.249439	-931.95227	295.04001	629.01129	-1431.8142	141.66586	376.78366	-1518.3224	173.87109	295.10544	-1517.0718	292.01196	71.174805	-1437.1804	314.13223	51.990337	-1364.6486	165.21791	41.261246	-1475.1289
511	2.55	290.15262	1137.6492	-1211.6329	151.23228	1047.9388	-1200.5645	315.28882	1060.6163	-1358.1122	282.68402	695.11163	-1080.9053	262.16687	712.74988	-1340.3959	442.38068	768.39105	-1173.5988	438.34164	766.84668	-1247.7524	211.61234	505.43713	-924.86511	139.40781	387.61197	-890.63702	231.11079	198.96098	-914.33966	300.01678	63.50668	-964.61517	320.69254	51.700653	-1026.061	163.82086	39.218414	-931.9505	295.8989	625.62189	-1431.9652	140.31958	375.47491	-1519.8501	172.69484	293.92105	-1518.3163	291.81427	70.891655	-1437.1603	314.05823	51.965031	-1364.7019	165.25787	41.257225	-1475.2083
512	2.555	289.7963	1132.2629	-1211.5603	150.95674	1042.2957	-1200.4099	314.91104	1055.2935	-1358.1566	284.26913	689.46326	-1082.2677	263.06375	707.6615	-1340.3887	443.25299	763.49707	-1173.8231	439.21381	762.06232	-1247.843	211.69214	503.69125	-924.2099	138.47914	386.75586	-889.22925	230.7177	198.51501	-913.58997	300.90808	64.405609	-964.6701	321.40305	52.642876	-1026.8053	163.91646	39.230911	-931.85382	296.69217	622.37311	-1432.2198	138.92081	374.20383	-1521.3982	171.47299	292.80563	-1519.5194	291.68628	70.759308	-1437.177	313.97528	52.017296	-1364.6481	165.28625	41.276169	-1475.2428
513	2.56	289.48267	1126.8657	-1211.5006	150.69014	1036.6029	-1200.2692	314.6571	1049.9509	-1358.2339	285.35556	684.19574	-1082.4431	263.75369	702.76508	-1340.4102	444.05765	758.57635	-1173.6896	439.95062	757.07361	-1247.9036	211.70493	501.78415	-923.50476	137.57932	385.81494	-887.7066	230.39877	197.9991	-913.02771	300.63214	64.068657	-964.73431	321.42728	52.704941	-1026.8022	164.03534	39.273369	-931.74615	297.49091	619.12915	-1432.4916	137.59828	373.035	-1522.8932	170.24138	291.728	-1520.745	291.51752	70.747597	-1437.1768	313.82126	52.067947	-1364.5515	165.31088	41.382008	-1475.2911
514	2.565	289.17679	1121.3978	-1211.4529	150.44318	1030.9575	-1200.0179	314.31644	1044.6707	-1358.2009	286.33215	678.90027	-1082.4469	264.62302	697.73291	-1340.4796	444.83719	753.65192	-1173.5426	440.57977	751.87793	-1247.8931	211.79749	499.93964	-922.77484	136.73624	384.79852	-886.43347	229.96896	197.50159	-912.49878	300.6127	63.955917	-964.66846	321.45114	52.834129	-1026.8599	164.10373	39.324673	-931.68774	298.38028	615.69067	-1432.6567	136.26419	371.8175	-1524.3533	168.97374	290.67816	-1521.861	291.37134	70.726662	-1437.1451	313.61902	52.149422	-1364.2913	165.3083	41.432472	-1475.2939
